<svg xmlns="http://www.w3.org/2000/svg" viewBox="0 0 1108.19 250">
  <defs>
    <style>
      .cls-1 {
        fill: #ffbc00;
      }
      .cls-2 {
        fill: #ff8d21;
      }
      .cls-3 {
        fill: #ff5a42;
      }
      .cls-4 {
        fill: #ff1762;
      }
    </style>
  </defs>
  <g id="Layer_2" data-name="Layer 2">
    <g id="Logo">
      <g id="text">
        <path d="M433.41,87.1h25.81l-25.81,80.64H410.83l-12.9-43.06L385,167.74H362.44L336.64,87.1h25.8l11.62,43.22L386.64,87.1h22.58l12.58,43.22Z"/>
        <path d="M483.25,137.1c2.75,7.58,9.2,11.29,19.36,11.29,6.61,0,11.77-2.1,15.48-6.13l19.36,11.13C529.54,164.52,517.77,170,502.29,170c-13.55,0-24.36-4-32.59-12.1q-12.09-12.09-12.09-30.48c0-12.1,4-22.26,11.93-30.32,8.07-8.23,18.39-12.26,31-12.26,11.78,0,21.45,4,29.19,12.26,7.91,8.06,11.78,18.22,11.78,30.32a46.59,46.59,0,0,1-1,9.68ZM517.45,119c-2.42-8.55-8.07-12.74-17.1-12.74-9.35,0-15.16,4.19-17.58,12.74Z"/>
        <path d="M632.77,54.84h14L627,167.74h-14l2.1-11.61c-8.55,9.19-19.36,13.71-32.42,13.71-11.45,0-20.65-4.36-27.26-13.23s-8.71-19.19-6.61-31c2.09-12.42,7.58-22.26,16.29-29.52A44.3,44.3,0,0,1,594.54,85c13.39,0,24.52,6.29,29.84,17.26Zm-17.9,51.61c-4.84-5.32-11.29-7.9-19.2-7.9a33.3,33.3,0,0,0-21.13,7.58c-6.29,5-10.32,11.77-11.77,20.64-1.45,8.23,0,15.33,4.52,21,4.67,5.65,11,8.55,19.19,8.55a32.65,32.65,0,0,0,21.77-7.9,33.48,33.48,0,0,0,11.62-20.33C621.48,118.87,619.87,111.77,614.87,106.45Z"/>
        <path d="M722.93,97.58c6.62,8.23,8.71,18.23,6.45,30a29.83,29.83,0,0,1-1.61,6.29H660.35c0,14.36,9.68,22.74,24.52,22.74,10.8,0,19.35-4,25.64-11.93L721,152.26c-8.23,11.13-22.42,17.58-37.75,17.58-12.74,0-22.41-4.19-29.19-12.74s-9-18.87-6.93-31.29a48.35,48.35,0,0,1,16.61-29.2A46.75,46.75,0,0,1,695,85C707.13,85,716.48,89.19,722.93,97.58Zm-6.77,23.87c.64-15.32-8.39-23.22-21.94-23.22-15,0-27.09,8.87-31.77,23.22Z"/>
        <path d="M794.06,87.1h15.65l-43.87,80.64H750L734.71,87.1H748.9l11.29,64.67Z"/>
        <path d="M878.74,97.58c6.62,8.23,8.71,18.23,6.46,30a30.56,30.56,0,0,1-1.62,6.29H816.16c0,14.36,9.68,22.74,24.52,22.74,10.81,0,19.35-4,25.64-11.93l10.49,7.58c-8.23,11.13-22.42,17.58-37.74,17.58-12.75,0-22.42-4.19-29.2-12.74s-9-18.87-6.93-31.29a48.35,48.35,0,0,1,16.61-29.2A46.76,46.76,0,0,1,850.84,85C862.94,85,872.29,89.19,878.74,97.58ZM872,121.45c.65-15.32-8.39-23.22-21.94-23.22-15,0-27.09,8.87-31.77,23.22Z"/>
        <path d="M890.36,167.74l8.55-49L911,50h14L904.39,167.74Z"/>
        <path d="M932,157.42c-7.26-8.23-9.68-18.71-7.42-31.45,2.26-12.42,8.23-22.42,17.74-29.84A50.67,50.67,0,0,1,974.23,85C985.68,85,995,89.19,1002,97.42s9.36,18.71,7.26,31.13c-2.1,12.74-7.9,22.74-17.26,30.16a49.22,49.22,0,0,1-31.29,11.13C948.75,169.84,939.23,165.65,932,157.42Zm51.29-9q9.93-7.74,12.1-21.29c1.45-8.71-.16-15.65-4.84-20.65-4.68-5.16-10.81-7.74-18.55-7.74a35.13,35.13,0,0,0-21.13,7.74c-6.45,5-10.48,12.1-12.26,21-1.45,9,0,16.13,4.68,21.29,4.68,5,11,7.58,18.55,7.42A33.42,33.42,0,0,0,983.26,148.39Z"/>
        <path d="M1100.52,98.23c6.61,8.71,9,19,6.94,30.8-2.1,12.42-7.58,22.26-16.29,29.68a43.61,43.61,0,0,1-29.36,11.13c-13.38,0-24.68-6.29-30-17.42L1023.42,200h-14l19.84-112.9h14L1041.17,99c8.38-9.35,19.19-14,32.26-14C1084.88,85,1093.91,89.35,1100.52,98.23Zm-11.77,8.87c-4.52-5.65-10.81-8.55-19-8.55a32.66,32.66,0,0,0-21.78,7.9,33,33,0,0,0-11.61,20.16q-2.41,13.8,4.84,21.78c5,5.32,11.45,7.9,19.51,7.9a33,33,0,0,0,21-7.42c6.29-5,10.32-11.93,11.78-20.81C1094.88,119.84,1093.26,112.74,1088.75,107.1Z"/>
      </g>
      <g id="logo-2" data-name="logo">
        <rect class="cls-1" x="127.48" y="69.72" width="209.16" height="69.72" rx="34.86" transform="translate(127.48 336.64) rotate(-90)"/>
        <path class="cls-2" d="M249.49,135.19a17.35,17.35,0,0,1-12.35-5.13h0l-12.31-12.31h0L158.11,51.05a34.87,34.87,0,0,0-49.3,0h0a34.87,34.87,0,0,0,0,49.3l98.6,98.6a34.87,34.87,0,0,0,49.3,0h0a34.86,34.86,0,0,0,7.62-11.47h0s0,0,0,0c.19-.46.33-.94.5-1.41s.44-1.18.62-1.78.24-1,.36-1.47.32-1.19.44-1.8.15-1,.22-1.51.2-1.2.26-1.8.06-1.08.08-1.62.09-1.12.09-1.69v-56.6A17.43,17.43,0,0,1,249.49,135.19Z"/>
        <path class="cls-3" d="M173.44,91a17.39,17.39,0,0,0-5.11,12.36h0V120.8h0v94.34A34.86,34.86,0,0,1,133.46,250h0A34.86,34.86,0,0,1,98.6,215.14V75.7a34.86,34.86,0,0,1,34.86-34.86h0A34.66,34.66,0,0,1,147,43.56h0l0,0c.46.2.9.43,1.35.65s1.15.52,1.7.82.86.52,1.3.78,1.07.62,1.57,1,.82.61,1.23.91,1,.71,1.46,1.09.8.73,1.2,1.09.85.74,1.26,1.14l.08.08,10.17,10.17L198.09,91A17.42,17.42,0,0,0,173.44,91Z"/>
        <path class="cls-4" d="M150.89,176a17.37,17.37,0,0,1-12.35-5.13h0L126.22,158.6h0L59.51,91.89a34.87,34.87,0,0,0-49.3,0h0a34.87,34.87,0,0,0,0,49.3l98.6,98.6a34.87,34.87,0,0,0,49.3,0h0a35,35,0,0,0,7.63-11.47h0s0,0,0,0c.19-.46.33-.94.5-1.41s.44-1.18.62-1.78.24-1,.37-1.47.32-1.19.43-1.79.15-1,.22-1.52.21-1.2.26-1.8.06-1.08.08-1.61.09-1.13.09-1.7V158.6A17.43,17.43,0,0,1,150.89,176Z"/>
      </g>
    </g>
  </g>
</svg>
